<svg width="110" height="110" viewBox="0 0 110 110" fill="none" xmlns="http://www.w3.org/2000/svg">
<path d="M14.05 95.95L77.95 32.05C69.85 23.95 58.6 19 46 19C21.25 19 1 39.25 1 64C1 76.6 5.95 87.85 14.05 95.95Z" fill="url(#paint0_linear_4560_67)"/>
<path d="M14.05 96.0914L14.1207 96.0207L78.0207 32.1207L78.0914 32.05L78.0207 31.9793C69.9021 23.8607 58.6268 18.9 46 18.9C21.1948 18.9 0.9 39.1948 0.9 64C0.9 76.6268 5.86075 87.9021 13.9793 96.0207L14.05 96.0914Z" stroke="black" stroke-opacity="0.69" stroke-width="0.2"/>
<path d="M14.05 95.95C22.15 104.05 33.4 109 46 109C70.75 109 91 88.75 91 64C91 51.4 86.05 40.15 77.95 32.05L14.05 95.95Z" fill="white"/>
<path d="M13.9793 95.8793L13.9086 95.95L13.9793 96.0207C22.0979 104.139 33.3732 109.1 46 109.1C70.8053 109.1 91.1 88.8053 91.1 64C91.1 51.3732 86.1393 40.0979 78.0207 31.9793L77.95 31.9086L77.8793 31.9793L13.9793 95.8793Z" stroke="black" stroke-opacity="0.69" stroke-width="0.2"/>
<path d="M23.95 86.05L68.5 41.5C62.65 36.1 54.55 32.5 46 32.5C28.45 32.5 14.5 46.45 14.5 64C14.5 72.55 18.1 80.65 23.95 86.05Z" fill="#F0F0F0"/>
<path d="M23.8822 86.1235L23.9528 86.1886L24.0207 86.1207L68.5707 41.5707L68.6443 41.4971L68.5678 41.4265C62.7013 36.0112 54.5776 32.4 46 32.4C28.3948 32.4 14.4 46.3948 14.4 64C14.4 72.5773 18.0112 80.7041 23.8822 86.1235Z" stroke="black" stroke-opacity="0.69" stroke-width="0.2"/>
<path d="M23.95 86.0499C29.8 91.8999 37.45 95.4999 46 95.4999C63.55 95.4999 77.5 81.5499 77.5 63.9999C77.5 55.4499 73.9 47.3499 68.05 41.95L23.95 86.0499Z" fill="#CFD3D4"/>
<path d="M23.8793 85.9792L23.8086 86.0499L23.8793 86.1206C29.7458 91.9872 37.4205 95.5999 46 95.5999C63.6052 95.5999 77.6 81.6052 77.6 63.9999C77.6 55.4226 73.9888 47.2958 68.1178 41.8765L68.0472 41.8113L67.9793 41.8792L23.8793 85.9792Z" stroke="black" stroke-opacity="0.69" stroke-width="0.2"/>
<path d="M33.4 76.6L59.05 50.95C55.45 47.8 50.95 46 46 46C36.1 46 28 54.1 28 64C28 68.95 29.8 73.45 33.4 76.6Z" fill="#B80000"/>
<path d="M33.3341 76.6752L33.4046 76.7368L33.4707 76.6707L59.1207 51.0207L59.1963 50.9451L59.1158 50.8747C55.4984 47.7095 50.9753 45.9 46 45.9C36.0448 45.9 27.9 54.0448 27.9 64C27.9 68.9747 29.7095 73.5037 33.3341 76.6752Z" stroke="black" stroke-opacity="0.69" stroke-width="0.2"/>
<path d="M33.4 76.6C36.55 80.2 41.05 82 46 82C55.9 82 64 73.9 64 64C64 59.05 62.2 54.55 58.6 51.4L33.4 76.6Z" fill="#780000"/>
<path d="M33.3293 76.5293L33.2632 76.5955L33.3248 76.6659C36.4963 80.2905 41.0253 82.1 46 82.1C55.9552 82.1 64.1 73.9553 64.1 64C64.1 59.0253 62.2905 54.4963 58.6659 51.3248L58.5955 51.2632L58.5293 51.3293L33.3293 76.5293Z" stroke="black" stroke-opacity="0.69" stroke-width="0.2"/>
<path d="M42.85 67.15L49.15 60.85C48.25 59.95 47.35 59.5 46 59.5C43.3 59.5 41.5 61.3 41.5 64C41.5 65.35 41.95 66.25 42.85 67.15Z" fill="#F0F0F0"/>
<path d="M42.7793 67.2207L42.85 67.2914L42.9207 67.2207L49.2207 60.9207L49.2914 60.85L49.2207 60.7793C48.7648 60.3234 48.3049 59.9775 47.7844 59.7461C47.2634 59.5146 46.6867 59.4 46 59.4C44.6273 59.4 43.4756 59.858 42.6668 60.6668C41.858 61.4756 41.4 62.6273 41.4 64C41.4 64.6867 41.5146 65.2634 41.7461 65.7844C41.9775 66.3049 42.3234 66.7648 42.7793 67.2207Z" stroke="black" stroke-opacity="0.69" stroke-width="0.2"/>
<path d="M42.85 67.15C43.75 68.05 44.65 68.5 46 68.5C48.7 68.5 50.5 66.7 50.5 64C50.5 62.65 50.05 61.75 49.15 60.85L42.85 67.15Z" fill="#CFD3D4"/>
<path d="M42.7793 67.0793L42.7086 67.15L42.7793 67.2207C43.2352 67.6766 43.695 68.0225 44.2156 68.2539C44.7366 68.4854 45.3133 68.6 46 68.6C47.3727 68.6 48.5244 68.142 49.3332 67.3332C50.142 66.5244 50.6 65.3727 50.6 64C50.6 63.3133 50.4854 62.7366 50.2539 62.2156C50.0225 61.695 49.6766 61.2352 49.2207 60.7793L49.15 60.7086L49.0793 60.7793L42.7793 67.0793Z" stroke="black" stroke-opacity="0.69" stroke-width="0.2"/>
<path d="M44.2 65.8L81.1 28.9C81.1 28 80.2 28 79.75 28C79.3 28 78.4 28 77.95 28.45L44.2 62.2C43.354 63.046 43.2235 64.8235 44.2 65.8Z" fill="#787780"/>
<path d="M44.1293 65.8707L44.2 65.9414L44.2707 65.8707L81.1707 28.9707L81.2 28.9414V28.9C81.2 28.6576 81.1391 28.4675 81.0334 28.3211C80.9282 28.1754 80.7842 28.081 80.6309 28.0197C80.3317 27.9 79.9784 27.9 79.7564 27.9L79.75 27.9H79.7479C79.5234 27.9 79.1792 27.9 78.8335 27.9576C78.4891 28.015 78.1264 28.1321 77.8793 28.3793L44.1293 62.1293C43.6845 62.574 43.4334 63.2563 43.4166 63.9486C43.3998 64.6419 43.6176 65.359 44.1293 65.8707Z" stroke="black" stroke-opacity="0.69" stroke-width="0.2"/>
<path d="M44.2 65.8C45.1 66.7 46.4499 66.7 47.3499 65.8L81.0999 32.05C81.9999 31.15 81.9999 29.8 81.0999 28.9L44.2 65.8Z" fill="#57555C"/>
<path d="M44.1292 65.7293L44.0585 65.8L44.1292 65.8707C45.0683 66.8098 46.4816 66.8098 47.4207 65.8707L81.1706 32.1207C82.1097 31.1817 82.1097 29.7684 81.1706 28.8293L81.0999 28.7586L81.0292 28.8293L44.1292 65.7293Z" stroke="black" stroke-opacity="0.69" stroke-width="0.2"/>
<path d="M77.95 32.05L99.55 10.45L97.75 2.8C97.75 1.9 96.85 1.45 95.95 1C95.05 1 94.15 1 93.7 1.45L77.95 17.2C77.95 17.65 77.5 18.55 77.5 19V30.25C77.5 30.7 77.95 31.6 77.95 32.05Z" fill="#C71026"/>
<path d="M77.85 32.05V32.2914L78.0207 32.1207L99.6207 10.5207L99.6601 10.4813L99.6473 10.4271L97.8499 2.78819C97.846 2.30464 97.6001 1.94497 97.2515 1.65443C96.9051 1.36573 96.4465 1.13646 96.0015 0.913934L95.9947 0.910557L95.9736 0.9H95.95H95.9454C95.4987 0.899999 95.0429 0.899999 94.6421 0.957255C94.2412 1.01452 93.8774 1.13122 93.6293 1.37929L77.8793 17.1293L77.85 17.1586V17.2C77.85 17.2986 77.8249 17.4287 77.7832 17.5815C77.7419 17.733 77.6866 17.899 77.6301 18.0684L77.6296 18.07C77.5737 18.2376 77.5168 18.4085 77.4738 18.5659C77.4311 18.7224 77.4 18.8736 77.4 19V30.25C77.4 30.3764 77.4311 30.5276 77.4738 30.6841C77.5168 30.8415 77.5737 31.0124 77.6296 31.18L77.6301 31.1816C77.6866 31.351 77.7419 31.517 77.7832 31.6685C77.8249 31.8213 77.85 31.9514 77.85 32.05Z" stroke="black" stroke-opacity="0.69" stroke-width="0.2"/>
<path d="M107.2 12.25L99.55 10.45L77.95 32.0499C78.4 32.0499 79.3 32.4999 79.75 32.4999H91C91.45 32.4999 92.35 32.0499 92.8 32.0499L108.55 16.3C109 15.4 109 14.5 109 14.05C108.55 13.15 108.1 12.7 107.2 12.25Z" fill="url(#paint1_linear_4560_67)"/>
<path d="M107.245 12.1605L107.234 12.1553L107.223 12.1526L99.5729 10.3526L99.5187 10.3399L99.4793 10.3792L77.8793 31.9792L77.7086 32.1499H77.95C78.0486 32.1499 78.1787 32.175 78.3315 32.2167C78.483 32.2581 78.649 32.3133 78.8184 32.3698L78.82 32.3703C78.9876 32.4262 79.1585 32.4832 79.3159 32.5261C79.4724 32.5688 79.6236 32.5999 79.75 32.5999H91C91.1264 32.5999 91.2776 32.5688 91.4341 32.5261C91.5915 32.4832 91.7625 32.4262 91.9301 32.3703L91.9316 32.3698C92.101 32.3133 92.267 32.2581 92.4185 32.2167C92.5713 32.175 92.7014 32.1499 92.8 32.1499H92.8414L92.8707 32.1207L108.621 16.3707L108.632 16.3592L108.639 16.3447C109.1 15.4235 109.1 14.5041 109.1 14.0524V14.05V14.0263L109.089 14.0052C108.861 13.5492 108.631 13.2017 108.339 12.9105C108.048 12.6192 107.701 12.3885 107.245 12.1605Z" stroke="black" stroke-opacity="0.69" stroke-width="0.2"/>
<defs>
<linearGradient id="paint0_linear_4560_67" x1="-0.589493" y1="27.152" x2="87.9953" y2="44.4245" gradientUnits="userSpaceOnUse">
<stop stop-color="#B3C5D1"/>
<stop offset="0.38" stop-color="#5A6D78"/>
<stop offset="1" stop-color="#C1121F"/>
</linearGradient>
<linearGradient id="paint1_linear_4560_67" x1="77.3086" y1="12.7859" x2="111.811" y2="22.2592" gradientUnits="userSpaceOnUse">
<stop stop-color="#B3C5D1"/>
<stop offset="0.38" stop-color="#5A6D78"/>
<stop offset="1" stop-color="#C1121F"/>
</linearGradient>
</defs>
</svg>
