<svg width="172" height="180" viewBox="0 0 172 180" fill="none" xmlns="http://www.w3.org/2000/svg">
<path d="M21.5417 157.492L122.125 52.1751C109.375 38.8251 91.6666 30.6667 71.8333 30.6667C32.875 30.6667 1 64.0417 1 104.833C1 125.6 8.79167 144.142 21.5417 157.492Z" fill="url(#paint0_linear_2603_75)"/>
<path d="M21.4693 157.561L21.5417 157.636L21.614 157.561L122.197 52.2441L122.263 52.1751L122.197 52.106C109.429 38.737 91.695 30.5667 71.8333 30.5667C32.8155 30.5667 0.9 63.9909 0.9 104.833C0.9 125.625 8.70134 144.192 21.4693 157.561Z" stroke="black" stroke-opacity="0.69" stroke-width="0.2"/>
<path d="M21.5417 157.492C34.2917 170.842 52 179 71.8333 179C110.792 179 142.667 145.625 142.667 104.833C142.667 84.0667 134.875 65.525 122.125 52.175L21.5417 157.492Z" fill="white"/>
<path d="M21.4694 157.423L21.4034 157.492L21.4694 157.561C34.2375 170.93 51.9717 179.1 71.8333 179.1C110.851 179.1 142.767 145.676 142.767 104.833C142.767 84.0413 134.965 65.4748 122.197 52.106L122.125 52.0303L122.053 52.106L21.4694 157.423Z" stroke="black" stroke-opacity="0.69" stroke-width="0.2"/>
<path d="M37.125 141.175L107.25 67.75C98.0416 58.85 85.2916 52.9166 71.8333 52.9166C44.2083 52.9166 22.25 75.9083 22.25 104.833C22.25 118.925 27.9166 132.275 37.125 141.175Z" fill="#F0F0F0"/>
<path d="M37.0555 141.247L37.1278 141.317L37.1973 141.244L107.322 67.819L107.391 67.7471L107.319 67.6781C98.0949 58.7624 85.3207 52.8166 71.8333 52.8166C44.1488 52.8166 22.15 75.8574 22.15 104.833C22.15 118.951 27.8267 132.327 37.0555 141.247Z" stroke="black" stroke-opacity="0.69" stroke-width="0.2"/>
<path d="M37.125 141.175C46.3333 150.817 58.375 156.75 71.8333 156.75C99.4583 156.75 121.417 133.758 121.417 104.833C121.417 90.7417 115.75 77.3917 106.542 68.4917L37.125 141.175Z" fill="#CFD3D4"/>
<path d="M37.0527 141.106L36.9867 141.175L37.0527 141.244C46.2771 150.903 58.3439 156.85 71.8333 156.85C99.5178 156.85 121.517 133.809 121.517 104.833C121.517 90.7159 115.84 77.3396 106.611 68.4198L106.539 68.3499L106.469 68.4226L37.0527 141.106Z" stroke="black" stroke-opacity="0.69" stroke-width="0.2"/>
<path d="M52 125.6L92.375 83.3251C86.7083 78.1334 79.625 75.1667 71.8333 75.1667C56.25 75.1667 43.5 88.5167 43.5 104.833C43.5 112.992 46.3333 120.408 52 125.6Z" fill="#B80000"/>
<path d="M51.9324 125.674L52.0047 125.74L52.0723 125.669L92.4473 83.3941L92.5178 83.3203L92.4425 83.2513C86.7587 78.044 79.6517 75.0667 71.8333 75.0667C56.1905 75.0667 43.4 88.4659 43.4 104.833C43.4 113.015 46.2418 120.46 51.9324 125.674Z" stroke="black" stroke-opacity="0.69" stroke-width="0.2"/>
<path d="M52 125.6C56.9583 131.533 64.0417 134.5 71.8333 134.5C87.4167 134.5 100.167 121.15 100.167 104.833C100.167 96.675 97.3333 89.2583 91.6667 84.0667L52 125.6Z" fill="#780000"/>
<path d="M51.9277 125.531L51.866 125.596L51.9233 125.664C56.9026 131.623 64.0154 134.6 71.8333 134.6C87.4762 134.6 100.267 121.201 100.267 104.833C100.267 96.6518 97.4249 89.2066 91.7342 83.9929L91.662 83.9268L91.5943 83.9976L51.9277 125.531Z" stroke="black" stroke-opacity="0.69" stroke-width="0.2"/>
<path d="M66.875 110.025L76.7917 99.6417C75.375 98.1584 73.9584 97.4167 71.8334 97.4167C67.5834 97.4167 64.75 100.383 64.75 104.833C64.75 107.058 65.4584 108.542 66.875 110.025Z" fill="#F0F0F0"/>
<path d="M66.8027 110.094L66.875 110.17L66.9473 110.094L76.864 99.7108L76.93 99.6417L76.864 99.5727C76.15 98.825 75.4318 98.26 74.6203 97.8823C73.8083 97.5044 72.9081 97.3167 71.8334 97.3167C69.6842 97.3167 67.8862 98.0674 66.6256 99.3873C65.3655 100.707 64.65 102.587 64.65 104.833C64.65 107.087 65.3703 108.594 66.8027 110.094Z" stroke="black" stroke-opacity="0.69" stroke-width="0.2"/>
<path d="M66.875 110.025C68.2917 111.508 69.7083 112.25 71.8333 112.25C76.0833 112.25 78.9167 109.283 78.9167 104.833C78.9167 102.608 78.2083 101.125 76.7917 99.6417L66.875 110.025Z" fill="#CFD3D4"/>
<path d="M66.8027 109.956L66.7367 110.025L66.8027 110.094C67.5167 110.842 68.2349 111.407 69.0463 111.784C69.8584 112.162 70.7586 112.35 71.8333 112.35C73.9825 112.35 75.7805 111.599 77.0411 110.28C78.3012 108.96 79.0167 107.08 79.0167 104.833C79.0167 102.58 78.2964 101.072 76.864 99.5727L76.7917 99.4969L76.7193 99.5727L66.8027 109.956Z" stroke="black" stroke-opacity="0.69" stroke-width="0.2"/>
<path d="M69 107.8L127.083 46.9834C127.083 45.5001 125.667 45.5001 124.958 45.5001C124.25 45.5001 122.833 45.5001 122.125 46.2417L69 101.867C67.6683 103.261 67.4629 106.191 69 107.8Z" fill="#787780"/>
<path d="M68.9277 107.869L69 107.945L69.0723 107.869L127.156 47.0525L127.183 47.0235V46.9834C127.183 46.5961 127.091 46.2973 126.933 46.0691C126.776 45.8412 126.56 45.6915 126.325 45.5932C125.864 45.4 125.316 45.4001 124.965 45.4001L124.958 45.4001H124.956C124.603 45.4001 124.064 45.4001 123.524 45.4943C122.986 45.5883 122.429 45.7788 122.053 46.1727L68.9277 101.798C68.2409 102.517 67.8503 103.624 67.8242 104.75C67.7981 105.878 68.1366 107.041 68.9277 107.869Z" stroke="black" stroke-opacity="0.69" stroke-width="0.2"/>
<path d="M69 107.8C70.4166 109.283 72.5416 109.283 73.9583 107.8L127.083 52.1749C128.5 50.6916 128.5 48.4666 127.083 46.9833L69 107.8Z" fill="#57555C"/>
<path d="M68.9277 107.731L68.8617 107.8L68.9277 107.869C70.3837 109.394 72.5746 109.394 74.0306 107.869L127.156 52.244C128.609 50.722 128.609 48.4362 127.156 46.9142L127.083 46.8385L127.011 46.9142L68.9277 107.731Z" stroke="black" stroke-opacity="0.69" stroke-width="0.2"/>
<path d="M122.125 52.175L156.125 16.575L153.292 3.96667C153.292 2.48333 151.875 1.74167 150.458 1C149.042 1 147.625 1 146.917 1.74167L122.125 27.7C122.125 28.4417 121.417 29.925 121.417 30.6667V49.2083C121.417 49.95 122.125 51.4333 122.125 52.175Z" fill="#C71026"/>
<path d="M122.025 52.175V52.4245L122.197 52.244L156.197 16.6441L156.234 16.6053L156.223 16.5531L153.392 3.95546C153.388 3.18177 153.015 2.60347 152.472 2.12986C151.932 1.65854 151.215 1.28319 150.511 0.914951L150.505 0.911407L150.483 0.9H150.458H150.453C149.749 0.9 149.034 0.899999 148.407 0.993809C147.779 1.08769 147.221 1.27779 146.844 1.6726L122.053 27.6309L122.025 27.6599V27.7C122.025 27.8722 121.983 28.0938 121.918 28.3469C121.852 28.5988 121.764 28.8742 121.676 29.153L121.675 29.1546C121.587 29.4316 121.498 29.7118 121.431 29.9693C121.364 30.2261 121.317 30.468 121.317 30.6667V49.2083C121.317 49.407 121.364 49.6489 121.431 49.9057C121.498 50.1632 121.587 50.4434 121.675 50.7204L121.676 50.722C121.764 51.0007 121.852 51.2762 121.918 51.5281C121.983 51.7812 122.025 52.0028 122.025 52.175Z" stroke="black" stroke-opacity="0.69" stroke-width="0.2"/>
<path d="M168.167 19.5417L156.125 16.575L122.125 52.175C122.833 52.175 124.25 52.9167 124.958 52.9167H142.667C143.375 52.9167 144.792 52.175 145.5 52.175L170.292 26.2167C171 24.7333 171 23.25 171 22.5083C170.292 21.025 169.583 20.2833 168.167 19.5417Z" fill="url(#paint1_linear_2603_75)"/>
<path d="M168.213 19.4531L168.202 19.4475L168.191 19.4446L156.149 16.4779L156.093 16.4641L156.053 16.5059L122.053 52.1059L121.891 52.275H122.125C122.288 52.275 122.498 52.318 122.74 52.387C122.98 52.4556 123.242 52.5473 123.509 52.6402L123.51 52.6408C123.775 52.7331 124.043 52.8266 124.289 52.8969C124.534 52.967 124.767 53.0167 124.958 53.0167H142.667C142.858 53.0167 143.091 52.967 143.336 52.8969C143.582 52.8266 143.85 52.7331 144.115 52.6408L144.116 52.6402C144.383 52.5473 144.645 52.4556 144.886 52.387C145.127 52.318 145.337 52.275 145.5 52.275H145.543L145.572 52.2441L170.364 26.2857L170.375 26.2742L170.382 26.2598C171.1 24.756 171.1 23.2541 171.1 22.5108V22.5083V22.4857L171.09 22.4653C170.733 21.7177 170.374 21.1515 169.921 20.6778C169.469 20.204 168.928 19.8272 168.213 19.4531Z" stroke="black" stroke-opacity="0.69" stroke-width="0.2"/>
<defs>
<linearGradient id="paint0_linear_2603_75" x1="-1.50198" y1="44.1024" x2="138.387" y2="70.1526" gradientUnits="userSpaceOnUse">
<stop stop-color="#B3C5D1"/>
<stop offset="0.38" stop-color="#5A6D78"/>
<stop offset="1" stop-color="#C1121F"/>
</linearGradient>
<linearGradient id="paint1_linear_2603_75" x1="121.115" y1="20.425" x2="175.762" y2="34.7548" gradientUnits="userSpaceOnUse">
<stop stop-color="#B3C5D1"/>
<stop offset="0.38" stop-color="#5A6D78"/>
<stop offset="1" stop-color="#C1121F"/>
</linearGradient>
</defs>
</svg>
