<svg width="1298" height="1372" viewBox="0 0 1298 1372" fill="none" xmlns="http://www.w3.org/2000/svg">
<g filter="url(#filter0_f_4561_111)">
<path d="M810.121 146.013C814.952 145.396 819.777 144.785 824.608 144.167C819.863 143.582 815.125 143.003 810.387 142.417C812.005 140.279 813.624 138.141 815.242 136.01C813.185 137.677 811.128 139.344 809.071 141.011C808.465 136.003 807.866 131.002 807.267 126C806.68 131.072 806.093 136.137 805.5 141.208C803.282 139.427 801.064 137.645 798.847 135.863C800.527 138.065 802.213 140.273 803.894 142.475C799.26 143.06 794.633 143.652 790 144.237C794.726 144.816 799.452 145.402 804.172 145.981C802.467 148.234 800.755 150.486 799.05 152.739C801.244 150.963 803.437 149.188 805.63 147.413C806.198 152.153 806.766 156.894 807.335 161.641C807.878 156.964 808.422 152.281 808.966 147.604C811.011 149.245 813.055 150.887 815.1 152.529C813.438 150.359 811.777 148.189 810.121 146.013Z" fill="white"/>
</g>
<g filter="url(#filter1_f_4561_111)">
<path d="M31.7868 178.952C38.4274 178.121 45.0594 177.298 51.7 176.467C45.1783 175.679 38.6651 174.899 32.152 174.11C34.3768 171.231 36.6016 168.351 38.8265 165.48C35.9987 167.726 33.171 169.971 30.3432 172.216C29.511 165.472 28.6873 158.736 27.8636 152C27.0569 158.83 26.2502 165.652 25.435 172.482C22.3864 170.082 19.3379 167.683 16.2893 165.283C18.5991 168.249 20.9174 171.222 23.2271 174.187C16.8583 174.976 10.498 175.773 4.12915 176.561C10.6253 177.341 17.1215 178.13 23.6092 178.909C21.2655 181.943 18.9133 184.977 16.5696 188.011C19.5842 185.62 22.5987 183.229 25.6133 180.838C26.3945 187.222 27.1758 193.607 27.957 200C28.7043 193.701 29.4516 187.394 30.1989 181.095C33.0096 183.306 35.8204 185.517 38.6312 187.728C36.3469 184.806 34.0626 181.883 31.7868 178.952Z" fill="#B3C5D1"/>
</g>
<g filter="url(#filter2_f_4561_111)">
<path d="M31.6577 1346.95C38.2982 1346.12 44.9303 1345.3 51.5708 1344.47C45.0492 1343.68 38.536 1342.9 32.0228 1342.11C34.2476 1339.23 36.4725 1336.35 38.6973 1333.48C35.8696 1335.73 33.0418 1337.97 30.2141 1340.22C29.3819 1333.47 28.5582 1326.74 27.7345 1320C26.9278 1326.83 26.121 1333.65 25.3058 1340.48C22.2573 1338.08 19.2087 1335.68 16.1602 1333.28C18.47 1336.25 20.7882 1339.22 23.098 1342.19C16.7291 1342.98 10.3688 1343.77 4 1344.56C10.4962 1345.34 16.9924 1346.13 23.4801 1346.91C21.1364 1349.94 18.7842 1352.98 16.4404 1356.01C19.455 1353.62 22.4696 1351.23 25.4842 1348.84C26.2654 1355.22 27.0466 1361.61 27.8279 1368C28.5752 1361.7 29.3224 1355.39 30.0697 1349.09C32.8805 1351.31 35.6912 1353.52 38.502 1355.73C36.2177 1352.81 33.9335 1349.88 31.6577 1346.95Z" fill="#B3C5D1"/>
</g>
<g filter="url(#filter3_f_4561_111)">
<path d="M93.8608 1303.22C103.911 1301.61 113.949 1300.02 124 1298.4C114.129 1296.88 104.271 1295.37 94.4134 1293.84C97.7808 1288.26 101.148 1282.68 104.516 1277.12C100.236 1281.47 95.9557 1285.82 91.6758 1290.17C90.4163 1277.1 89.1696 1264.05 87.9229 1251C86.7019 1264.23 85.4809 1277.45 84.2471 1290.68C79.633 1286.03 75.0189 1281.39 70.4049 1276.74C73.9007 1282.48 77.4095 1288.24 80.9054 1293.99C71.266 1295.52 61.6394 1297.06 52 1298.59C61.8322 1300.1 71.6644 1301.63 81.4838 1303.14C77.9365 1309.02 74.3763 1314.89 70.829 1320.77C75.3916 1316.14 79.9543 1311.51 84.517 1306.87C85.6994 1319.24 86.8818 1331.61 88.0643 1344C89.1953 1331.8 90.3263 1319.58 91.4573 1307.37C95.7115 1311.66 99.9657 1315.94 104.22 1320.22C100.763 1314.56 97.3052 1308.9 93.8608 1303.22Z" fill="#B3C5D1"/>
</g>
<g filter="url(#filter4_f_4561_111)">
<path d="M709.044 129.798C716.498 128.447 723.942 127.11 731.396 125.759C724.076 124.478 716.765 123.211 709.454 121.929C711.951 117.25 714.449 112.571 716.946 107.906C713.772 111.554 710.598 115.203 707.424 118.852C706.49 107.892 705.565 96.9459 704.641 86C703.735 97.0991 702.83 108.184 701.915 119.283C698.493 115.384 695.071 111.485 691.649 107.585C694.242 112.404 696.844 117.236 699.436 122.055C692.288 123.336 685.149 124.631 678 125.912C685.292 127.179 692.583 128.461 699.865 129.728C697.235 134.658 694.594 139.588 691.964 144.517C695.347 140.632 698.731 136.747 702.115 132.861C702.992 143.236 703.869 153.611 704.746 164C705.584 153.764 706.423 143.515 707.262 133.279C710.417 136.872 713.572 140.465 716.727 144.058C714.163 139.309 711.599 134.56 709.044 129.798Z" fill="#B3C5D1"/>
</g>
<g filter="url(#filter5_f_4561_111)">
<path d="M1258.54 62.3967C1270.2 60.5956 1281.84 58.8131 1293.49 57.012C1282.05 55.3037 1270.61 53.614 1259.18 51.9057C1263.09 45.6669 1266.99 39.428 1270.9 33.2076C1265.93 38.0725 1260.97 42.9373 1256.01 47.8022C1254.55 33.1891 1253.1 18.5945 1251.66 4C1250.24 18.7988 1248.82 33.579 1247.39 48.3778C1242.04 43.1787 1236.69 37.9796 1231.34 32.7806C1235.4 39.2051 1239.47 45.6483 1243.52 52.0728C1232.34 53.7811 1221.18 55.5079 1210 57.2162C1221.4 58.9059 1232.8 60.6142 1244.19 62.3039C1240.08 68.877 1235.95 75.4501 1231.83 82.0232C1237.13 76.8427 1242.42 71.6622 1247.71 66.4817C1249.08 80.3149 1250.45 94.1482 1251.82 108C1253.13 94.3524 1254.44 80.6863 1255.75 67.0387C1260.69 71.8293 1265.62 76.6199 1270.55 81.4105C1266.55 75.0787 1262.54 68.747 1258.54 62.3967Z" fill="url(#paint0_linear_4561_111)"/>
</g>
<g filter="url(#filter6_f_4561_111)">
<path d="M761.591 191.05C766.422 190.433 771.247 189.822 776.078 189.205C771.333 188.619 766.595 188.04 761.857 187.455C763.475 185.317 765.094 183.179 766.712 181.047C764.655 182.714 762.598 184.381 760.541 186.049C759.935 181.041 759.336 176.039 758.737 171.037C758.15 176.109 757.563 181.174 756.97 186.246C754.752 184.464 752.534 182.682 750.317 180.901C751.997 183.102 753.684 185.31 755.364 187.512C750.731 188.098 746.103 188.689 741.47 189.275C746.196 189.854 750.922 190.439 755.642 191.018C753.937 193.271 752.226 195.524 750.521 197.776C752.714 196.001 754.907 194.225 757.1 192.45C757.668 197.191 758.237 201.932 758.805 206.679C759.349 202.002 759.892 197.318 760.436 192.641C762.481 194.283 764.526 195.924 766.57 197.566C764.909 195.396 763.247 193.226 761.591 191.05Z" fill="white"/>
</g>
<g filter="url(#filter7_f_4561_111)">
<path d="M1144.94 216.771C1152.61 215.792 1160.27 214.822 1167.94 213.842C1160.41 212.912 1152.89 211.993 1145.36 211.064C1147.93 207.669 1150.5 204.275 1153.07 200.891C1149.81 203.538 1146.54 206.184 1143.28 208.831C1142.31 200.881 1141.36 192.94 1140.41 185C1139.48 193.051 1138.55 201.093 1137.61 209.144C1134.09 206.316 1130.57 203.487 1127.04 200.658C1129.71 204.154 1132.39 207.659 1135.06 211.155C1127.7 212.084 1120.36 213.024 1113 213.953C1120.5 214.872 1128.01 215.802 1135.5 216.721C1132.79 220.297 1130.07 223.873 1127.37 227.449C1130.85 224.631 1134.33 221.812 1137.81 218.994C1138.72 226.52 1139.62 234.046 1140.52 241.582C1141.38 234.157 1142.25 226.722 1143.11 219.297C1146.36 221.903 1149.6 224.51 1152.85 227.116C1150.21 223.671 1147.57 220.226 1144.94 216.771Z" fill="white"/>
<path d="M1144.88 216.275L1144.02 216.385L1144.55 217.074C1146.34 219.433 1148.14 221.787 1149.94 224.139L1143.42 218.907L1142.72 218.341L1142.61 219.239C1142.18 222.946 1141.75 226.667 1141.32 230.389C1141.05 232.699 1140.78 235.009 1140.51 237.315C1139.78 231.185 1139.04 225.059 1138.31 218.934L1138.2 218.036L1137.5 218.605L1130.25 224.473C1130.78 223.779 1131.3 223.085 1131.83 222.391L1131.83 222.387C1133.19 220.599 1134.54 218.811 1135.9 217.023L1136.42 216.33L1135.56 216.225C1132.05 215.794 1128.54 215.362 1125.03 214.929C1122.37 214.601 1119.7 214.273 1117.04 213.945C1119.39 213.647 1121.74 213.348 1124.09 213.05L1124.1 213.049C1127.77 212.582 1131.44 212.115 1135.12 211.651L1135.98 211.542L1135.45 210.851C1134.12 209.104 1132.78 207.353 1131.45 205.603C1130.94 204.943 1130.44 204.283 1129.94 203.623L1137.29 209.534L1138 210.1L1138.1 209.202C1138.88 202.556 1139.65 195.918 1140.42 189.274C1141.2 195.81 1141.99 202.347 1142.78 208.891L1142.89 209.789L1143.59 209.22L1150.18 203.882C1148.44 206.173 1146.7 208.467 1144.97 210.761L1144.97 210.762L1144.44 211.454L1145.3 211.56C1149.3 212.054 1153.3 212.545 1157.3 213.037C1159.51 213.308 1161.72 213.579 1163.92 213.85C1161.41 214.171 1158.9 214.49 1156.39 214.809L1156.38 214.811C1152.55 215.298 1148.71 215.785 1144.88 216.275Z" stroke="black"/>
</g>
<defs>
<filter id="filter0_f_4561_111" x="786" y="122" width="42.6079" height="43.6412" filterUnits="userSpaceOnUse" color-interpolation-filters="sRGB">
<feFlood flood-opacity="0" result="BackgroundImageFix"/>
<feBlend mode="normal" in="SourceGraphic" in2="BackgroundImageFix" result="shape"/>
<feGaussianBlur stdDeviation="2" result="effect1_foregroundBlur_4561_111"/>
</filter>
<filter id="filter1_f_4561_111" x="0.12915" y="148" width="55.5708" height="56" filterUnits="userSpaceOnUse" color-interpolation-filters="sRGB">
<feFlood flood-opacity="0" result="BackgroundImageFix"/>
<feBlend mode="normal" in="SourceGraphic" in2="BackgroundImageFix" result="shape"/>
<feGaussianBlur stdDeviation="2" result="effect1_foregroundBlur_4561_111"/>
</filter>
<filter id="filter2_f_4561_111" x="0" y="1316" width="55.5708" height="56" filterUnits="userSpaceOnUse" color-interpolation-filters="sRGB">
<feFlood flood-opacity="0" result="BackgroundImageFix"/>
<feBlend mode="normal" in="SourceGraphic" in2="BackgroundImageFix" result="shape"/>
<feGaussianBlur stdDeviation="2" result="effect1_foregroundBlur_4561_111"/>
</filter>
<filter id="filter3_f_4561_111" x="48" y="1247" width="80" height="101" filterUnits="userSpaceOnUse" color-interpolation-filters="sRGB">
<feFlood flood-opacity="0" result="BackgroundImageFix"/>
<feBlend mode="normal" in="SourceGraphic" in2="BackgroundImageFix" result="shape"/>
<feGaussianBlur stdDeviation="2" result="effect1_foregroundBlur_4561_111"/>
</filter>
<filter id="filter4_f_4561_111" x="674" y="82" width="61.3959" height="86" filterUnits="userSpaceOnUse" color-interpolation-filters="sRGB">
<feFlood flood-opacity="0" result="BackgroundImageFix"/>
<feBlend mode="normal" in="SourceGraphic" in2="BackgroundImageFix" result="shape"/>
<feGaussianBlur stdDeviation="2" result="effect1_foregroundBlur_4561_111"/>
</filter>
<filter id="filter5_f_4561_111" x="1206" y="0" width="91.4917" height="112" filterUnits="userSpaceOnUse" color-interpolation-filters="sRGB">
<feFlood flood-opacity="0" result="BackgroundImageFix"/>
<feBlend mode="normal" in="SourceGraphic" in2="BackgroundImageFix" result="shape"/>
<feGaussianBlur stdDeviation="2" result="effect1_foregroundBlur_4561_111"/>
</filter>
<filter id="filter6_f_4561_111" x="737.47" y="167.037" width="42.6079" height="43.6412" filterUnits="userSpaceOnUse" color-interpolation-filters="sRGB">
<feFlood flood-opacity="0" result="BackgroundImageFix"/>
<feBlend mode="normal" in="SourceGraphic" in2="BackgroundImageFix" result="shape"/>
<feGaussianBlur stdDeviation="2" result="effect1_foregroundBlur_4561_111"/>
</filter>
<filter id="filter7_f_4561_111" x="1109" y="181" width="62.9419" height="64.5824" filterUnits="userSpaceOnUse" color-interpolation-filters="sRGB">
<feFlood flood-opacity="0" result="BackgroundImageFix"/>
<feBlend mode="normal" in="SourceGraphic" in2="BackgroundImageFix" result="shape"/>
<feGaussianBlur stdDeviation="2" result="effect1_foregroundBlur_4561_111"/>
</filter>
<linearGradient id="paint0_linear_4561_111" x1="1208.28" y1="15.0176" x2="1305.66" y2="30.2614" gradientUnits="userSpaceOnUse">
<stop stop-color="#B3C5D1"/>
<stop offset="0.38" stop-color="#5A6D78"/>
<stop offset="1" stop-color="#C1121F"/>
</linearGradient>
</defs>
</svg>
