<svg width="108" height="96" viewBox="0 0 108 96" fill="none" xmlns="http://www.w3.org/2000/svg">
<g filter="url(#filter0_f_2617_58)">
<path d="M89.121 76.0128C93.952 75.3955 98.7768 74.7847 103.608 74.1674C98.8633 73.582 94.125 73.0029 89.3866 72.4175C91.0052 70.2794 92.6238 68.1413 94.2424 66.0096C92.1852 67.6768 90.128 69.344 88.0708 71.0112C87.4654 66.0032 86.8661 61.0016 86.2669 56C85.68 61.0716 85.0931 66.1368 84.5 71.2084C82.2822 69.4267 80.0644 67.645 77.8466 65.8632C79.5269 68.0649 81.2134 70.273 82.8938 72.4748C78.2605 73.0602 73.6333 73.652 69 74.2374C73.726 74.8165 78.452 75.4019 83.1718 75.981C81.4667 78.2336 79.7555 80.4862 78.0504 82.7389C80.2435 80.9635 82.4366 79.1881 84.6298 77.4127C85.1981 82.1534 85.7665 86.8941 86.3348 91.6412C86.8785 86.9641 87.4221 82.2807 87.9658 77.6036C90.0106 79.2454 92.0554 80.8871 94.1003 82.5289C92.4385 80.359 90.7766 78.1891 89.121 76.0128Z" fill="white"/>
</g>
<g filter="url(#filter1_f_2617_58)">
<path d="M35.0443 47.7975C42.498 46.4467 49.9422 45.1098 57.3958 43.759C50.0756 42.4778 42.7649 41.2105 35.4542 39.9293C37.9514 35.2501 40.4487 30.571 42.946 25.9057C39.772 29.5544 36.598 33.203 33.4239 36.8516C32.4899 25.8918 31.5653 14.9459 30.6407 4C29.7352 15.0991 28.8297 26.1843 27.9147 37.2833C24.4929 33.384 21.071 29.4847 17.6492 25.5854C20.2418 30.4039 22.8439 35.2362 25.4365 40.0546C18.2878 41.3358 11.1487 42.631 4 43.9122C11.2916 45.1794 18.5833 46.4606 25.8654 47.7279C23.2347 52.6577 20.5945 57.5876 17.9637 62.5174C21.3474 58.632 24.7312 54.7467 28.1149 50.8613C28.9918 61.2362 29.8687 71.6111 30.7456 82C31.5844 71.7643 32.4231 61.5147 33.2619 51.2791C36.4169 54.872 39.5718 58.4649 42.7268 62.0578C40.1628 57.3091 37.5988 52.5603 35.0443 47.7975Z" fill="#B3C5D1"/>
</g>
<defs>
<filter id="filter0_f_2617_58" x="65" y="52" width="42.6078" height="43.6412" filterUnits="userSpaceOnUse" color-interpolation-filters="sRGB">
<feFlood flood-opacity="0" result="BackgroundImageFix"/>
<feBlend mode="normal" in="SourceGraphic" in2="BackgroundImageFix" result="shape"/>
<feGaussianBlur stdDeviation="2" result="effect1_foregroundBlur_2617_58"/>
</filter>
<filter id="filter1_f_2617_58" x="0" y="0" width="61.3958" height="86" filterUnits="userSpaceOnUse" color-interpolation-filters="sRGB">
<feFlood flood-opacity="0" result="BackgroundImageFix"/>
<feBlend mode="normal" in="SourceGraphic" in2="BackgroundImageFix" result="shape"/>
<feGaussianBlur stdDeviation="2" result="effect1_foregroundBlur_2617_58"/>
</filter>
</defs>
</svg>
